<svg id="visual" viewBox="0 0 1920 1080" width="1920" height="1080" xmlns="http://www.w3.org/2000/svg" xmlns:xlink="http://www.w3.org/1999/xlink" version="1.1"><rect width="1920" height="1080" fill="#001829"></rect><g><g transform="translate(1237 703)"><path d="M0 -202.4L175.3 -101.2L175.3 101.2L0 202.4L-175.3 101.2L-175.3 -101.2Z" fill="none" stroke="#004c6d" stroke-width="5"></path></g><g transform="translate(939 322)"><path d="M0 -183L158.5 -91.5L158.5 91.5L0 183L-158.5 91.5L-158.5 -91.5Z" fill="none" stroke="#004c6d" stroke-width="5"></path></g><g transform="translate(1811 316)"><path d="M0 -186L161.1 -93L161.1 93L0 186L-161.1 93L-161.1 -93Z" fill="none" stroke="#004c6d" stroke-width="5"></path></g><g transform="translate(416 955)"><path d="M0 -197L170.6 -98.5L170.6 98.5L0 197L-170.6 98.5L-170.6 -98.5Z" fill="none" stroke="#004c6d" stroke-width="5"></path></g><g transform="translate(227 515)"><path d="M0 -182L157.6 -91L157.6 91L0 182L-157.6 91L-157.6 -91Z" fill="none" stroke="#004c6d" stroke-width="5"></path></g><g transform="translate(1658 722)"><path d="M0 -184L159.3 -92L159.3 92L0 184L-159.3 92L-159.3 -92Z" fill="none" stroke="#004c6d" stroke-width="5"></path></g><g transform="translate(329 45)"><path d="M0 -187L161.9 -93.5L161.9 93.5L0 187L-161.9 93.5L-161.9 -93.5Z" fill="none" stroke="#004c6d" stroke-width="5"></path></g></g></svg>